name Walk7.mot
datacolumns 19
datarows 20
range 2.54500000 2.64000000
endheader

                time	   L_ground_force_vx	   L_ground_force_vy	   L_ground_force_vz	   L_ground_force_px	   L_ground_force_py	   L_ground_force_pz	   R_ground_force_vx	   R_ground_force_vy	   R_ground_force_vz	   R_ground_force_px	   R_ground_force_py	   R_ground_force_pz	   L_ground_torque_x	   L_ground_torque_y	   L_ground_torque_z	   R_ground_torque_x	   R_ground_torque_y	   R_ground_torque_z	
          2.54500000	          3.24576307	         55.07970008	         -8.72122439	         -0.07204586	          0.00000000	         -0.00895344	         -0.00000000	          0.00000000	          0.00000000	          0.00000000	          0.00000000	          0.00000000	          0.00000000	          0.04478118	          0.00000000	          0.00000000	          0.00000000	          0.00000000	
          2.55000000	          2.28030500	         80.54962618	        -11.71458342	         -0.16119989	          0.00000000	         -0.01992097	         -0.00000000	          0.00000000	          0.00000000	          0.00000000	          0.00000000	          0.00000000	          0.00000000	          0.05264620	          0.00000000	          0.00000000	          0.00000000	          0.00000000	
          2.55500000	          0.83028868	        108.95494105	        -14.50574642	         -0.24008518	          0.00000000	         -0.02980133	         -0.00000000	          0.00000000	          0.00000000	          0.00000000	          0.00000000	          0.00000000	          0.00000000	          0.05855229	          0.00000000	          0.00000000	          0.00000000	          0.00000000	
          2.56000000	         -1.32445769	        139.34404951	        -16.84150931	         -0.30582146	          0.00000000	         -0.03826320	         -0.00000000	          0.00000000	         -0.00000000	          0.00000000	          0.00000000	          0.00000000	          0.00000000	          0.06015539	          0.00000000	          0.00000000	          0.00000000	          0.00000000	
          2.56500000	         -4.44152645	        170.92886128	        -18.50354944	         -0.35756075	          0.00000000	         -0.04521649	         -0.00000000	          0.00000000	         -0.00000000	         -0.00000000	          0.00000000	         -0.00000000	          0.00000000	          0.05362138	          0.00000000	          0.00000000	          0.00000000	          0.00000000	
          2.57000000	         -8.72422929	        203.20957109	        -19.31816614	         -0.39583414	          0.00000000	         -0.05072491	         -0.00000000	         -0.00000000	         -0.00000000	         -0.00000000	          0.00000000	         -0.00000000	          0.00000000	          0.03431306	          0.00000000	          0.00000000	          0.00000000	          0.00000000	
          2.57500000	        -14.24876029	        235.79697089	        -19.15372609	         -0.42203737	          0.00000000	         -0.05494032	         -0.00000000	         -0.00000000	         -0.00000000	         -0.00000000	          0.00000000	         -0.00000000	          0.00000000	         -0.00234347	          0.00000000	          0.00000000	          0.00000000	          0.00000000	
          2.58000000	        -20.92132990	        268.20885479	        -17.92759249	         -0.43803861	          0.00000000	         -0.05805372	         -0.00000000	         -0.00000001	         -0.00000000	         -0.00000000	          0.00000000	         -0.00000000	          0.00000000	         -0.05999311	          0.00000000	          0.00000000	         -0.00000000	          0.00000000	
          2.58500000	        -28.46042226	        299.84622497	        -15.64026557	         -0.44587610	          0.00000000	         -0.06026278	         -0.00000000	         -0.00000001	         -0.00000000	         -0.00000000	          0.00000000	         -0.00000000	          0.00000000	         -0.13846388	          0.00000000	          0.00000000	         -0.00000000	          0.00000000	
          2.59000000	        -36.44083142	        330.09604969	        -12.40272274	         -0.44753952	          0.00000000	         -0.06175534	         -0.00000000	         -0.00000002	         -0.00000000	         -0.00000000	          0.00000000	         -0.00000000	          0.00000000	         -0.23112292	          0.00000000	          0.00000000	         -0.00000000	          0.00000000	
          2.59500000	        -44.39722273	        358.36126064	         -8.40771405	         -0.44484293	          0.00000000	         -0.06270037	          0.00000000	         -0.00000003	         -0.00000000	         -0.00000000	          0.00000000	         -0.00000000	          0.00000000	         -0.32504300	          0.00000000	          0.00000000	         -0.00000000	          0.00000000	
          2.60000000	        -51.94763194	        384.09885399	         -3.87596243	         -0.43934226	          0.00000000	         -0.06324251	          0.00000000	         -0.00000004	         -0.00000001	         -0.00000000	          0.00000000	         -0.00000000	          0.00000000	         -0.40455350	          0.00000000	          0.00000000	         -0.00000000	          0.00000000	
          2.60500000	        -58.88183283	        407.01459824	          0.98543135	         -0.43228039	          0.00000000	         -0.06350049	          0.00000000	         -0.00000005	         -0.00000001	         -0.00000000	          0.00000000	         -0.00000000	          0.00000000	         -0.45537969	          0.00000000	          0.00000000	         -0.00000000	          0.00000000	
          2.61000000	        -65.17122705	        427.25035512	          6.01543986	         -0.42458736	          0.00000000	         -0.06356865	          0.00000000	         -0.00000007	         -0.00000001	         -0.00000000	          0.00000000	         -0.00000000	          0.00000000	         -0.46802306	          0.00000000	          0.00000000	         -0.00000000	          0.00000000	
          2.61500000	        -70.91592184	        445.43574857	         11.12093418	         -0.41691403	          0.00000000	         -0.06351658	          0.00000000	         -0.00000008	         -0.00000001	         -0.00000000	          0.00000000	         -0.00000000	          0.00000000	         -0.44020062	          0.00000000	          0.00000000	         -0.00000000	          0.00000000	
          2.62000000	        -76.26398365	        462.59135905	         16.25875303	         -0.40968384	          0.00000000	         -0.06339076	          0.00000000	         -0.00000008	         -0.00000001	         -0.00000000	          0.00000000	         -0.00000000	          0.00000000	         -0.37572289	          0.00000000	          0.00000000	         -0.00000000	          0.00000000	
          2.62500000	        -81.33669593	        479.91661085	         21.38131292	         -0.40314772	          0.00000000	         -0.06321723	          0.00000000	         -0.00000008	         -0.00000000	         -0.00000000	          0.00000000	         -0.00000000	          0.00000000	         -0.27951044	          0.00000000	          0.00000000	         -0.00000000	          0.00000000	
          2.63000000	        -86.18167360	        498.53612369	         26.39753171	         -0.39743186	          0.00000000	         -0.06300681	          0.00000000	         -0.00000007	          0.00000000	         -0.00000000	          0.00000000	         -0.00000000	          0.00000000	         -0.15474832	          0.00000000	          0.00000000	         -0.00000000	          0.00000000	
          2.63500000	        -90.75547081	        519.28179520	         31.17587004	         -0.39257582	          0.00000000	         -0.06275952	          0.00000000	         -0.00000005	          0.00000001	          0.00000000	          0.00000000	          0.00000000	          0.00000000	         -0.00434151	          0.00000000	          0.00000000	         -0.00000000	          0.00000000	
          2.64000000	        -94.93606469	        542.56698570	         35.58087218	         -0.38855770	          0.00000000	         -0.06247132	          0.00000000	         -0.00000001	          0.00000001	          0.00000000	          0.00000000	          0.00000000	          0.00000000	          0.16655901	          0.00000000	          0.00000000	         -0.00000000	          0.00000000	
